<svg xmlns="http://www.w3.org/2000/svg" viewBox="0 0 32 32" fill="none">
  <defs>
    <linearGradient id="sg" x1="0%" y1="0%" x2="100%" y2="100%">
      <stop offset="0%" style="stop-color:#6366f1"/>
      <stop offset="100%" style="stop-color:#8b5cf6"/>
    </linearGradient>
  </defs>
  <path d="M16 2L3 7.5v9.5c0 6.8 5.2 13.1 13 14.5 7.8-1.4 13-7.7 13-14.5V7.5L16 2z" fill="url(#sg)"/>
  <circle cx="16" cy="15" r="3.5" fill="white" opacity="0.95"/>
  <circle cx="16" cy="15" r="2" fill="url(#sg)"/>
  <circle cx="10" cy="12" r="1.2" fill="white" opacity="0.8"/>
  <circle cx="22" cy="12" r="1.2" fill="white" opacity="0.8"/>
  <circle cx="10" cy="19" r="1.2" fill="white" opacity="0.8"/>
  <circle cx="22" cy="19" r="1.2" fill="white" opacity="0.8"/>
  <line x1="13" y1="14" x2="11" y2="12.5" stroke="white" stroke-width="0.8" opacity="0.6"/>
  <line x1="19" y1="14" x2="21" y2="12.5" stroke="white" stroke-width="0.8" opacity="0.6"/>
  <line x1="13" y1="16.5" x2="11" y2="18.5" stroke="white" stroke-width="0.8" opacity="0.6"/>
  <line x1="19" y1="16.5" x2="21" y2="18.5" stroke="white" stroke-width="0.8" opacity="0.6"/>
  <circle cx="16" cy="8" r="1" fill="white" opacity="0.8"/>
  <line x1="16" y1="9" x2="16" y2="11.5" stroke="white" stroke-width="0.8" opacity="0.6"/>
  <circle cx="16" cy="22" r="1" fill="white" opacity="0.8"/>
  <line x1="16" y1="18.5" x2="16" y2="21" stroke="white" stroke-width="0.8" opacity="0.6"/>
</svg>
