<svg xmlns="http://www.w3.org/2000/svg" viewBox="0 0 32 32" fill="none">
  <path d="M16 2 C11.5 2 7 3 4 4.5 C3.4 4.7 3 5.3 3.1 6 L4.2 21 C4.8 27 8.5 30 16 33 C23.5 30 27.2 27 27.8 21 L28.9 6 C29 5.3 28.6 4.7 28 4.5 C25 3 20.5 2 16 2Z"
        fill="#22d3ee"/>
  <path d="M16 4 C12 4 8 4.8 5.5 6 L6.4 20.5 C7 26 10 28.8 16 31.2 C22 28.8 25 26 25.6 20.5 L26.5 6 C24 4.8 20 4 16 4Z"
        fill="#09090b"/>
  <text x="16" y="22.5" text-anchor="middle" font-family="Arial,Helvetica,sans-serif" font-size="10" font-weight="900" letter-spacing="-0.5" fill="#22d3ee">AIA</text>
</svg>
