<svg xmlns="http://www.w3.org/2000/svg" viewBox="0 0 32 32" fill="none">
  <defs>
    <linearGradient id="fg" x1="16" y1="1" x2="16" y2="31" gradientUnits="userSpaceOnUse">
      <stop offset="0%" stop-color="#22d3ee"/>
      <stop offset="100%" stop-color="#0e7490"/>
    </linearGradient>
    <linearGradient id="fb" x1="16" y1="3" x2="16" y2="30" gradientUnits="userSpaceOnUse">
      <stop offset="0%" stop-color="#0f172a"/>
      <stop offset="100%" stop-color="#070b14"/>
    </linearGradient>
  </defs>

  <!-- Shield -->
  <path d="M16 3.5 C12 3.5 8 4.5 5.5 5.5 C5 5.7 4.8 6.2 4.9 6.8 L6 20.5 C6.5 25.5 9.5 28 16 31 C22.5 28 25.5 25.5 26 20.5 L27.1 6.8 C27.2 6.2 27 5.7 26.5 5.5 C24 4.5 20 3.5 16 3.5Z"
        fill="url(#fb)" stroke="url(#fg)" stroke-width="1.2"/>

  <!-- Sword -->
  <circle cx="16" cy="1.5" r="1.2" fill="url(#fg)"/>
  <rect x="15.3" y="2.7" width="1.4" height="3" rx="0.4" fill="url(#fg)"/>
  <rect x="13" y="5.5" width="6" height="1.2" rx="0.6" fill="url(#fg)"/>
  <path d="M15.4 6.7 L15.4 29 L16 30.5 L16.6 29 L16.6 6.7Z" fill="url(#fg)" opacity="0.5"/>

  <!-- Helmet simplified -->
  <path d="M16 8 C13.5 8 11.5 9.2 10.8 11 C10.5 12 10.5 13 10.8 14 L12.5 14 C12.3 13 12.5 12 13 11.2 C13.6 10 14.7 9.4 16 9.4 C17.3 9.4 18.4 10 19 11.2 C19.5 12 19.7 13 19.5 14 L21.2 14 C21.5 13 21.5 12 21.2 11 C20.5 9.2 18.5 8 16 8Z"
        fill="url(#fg)" opacity="0.85"/>

  <!-- Eye slits -->
  <rect x="12.5" y="13" width="3" height="1.8" rx="0.4" fill="url(#fb)"/>
  <rect x="16.5" y="13" width="3" height="1.8" rx="0.4" fill="url(#fb)"/>

  <!-- AIA text micro -->
  <text x="16" y="24" text-anchor="middle" font-family="Arial,sans-serif" font-size="5" font-weight="700" letter-spacing="0.5" fill="url(#fg)" opacity="0.8">AIA</text>
</svg>
