<svg xmlns="http://www.w3.org/2000/svg" viewBox="0 0 32 32" fill="none">
  <!-- ai-armor favicon v9 — cleaner, bolder at small size -->

  <!-- Shield -->
  <path d="M10.5 4.5 L21.5 4.5 Q27 5 26.5 7.5 L25.5 20 Q23 28 16 30.5 Q9 28 6.5 20 L5.5 7.5 Q5 5 10.5 4.5 Z"
        fill="#0A0F1E" stroke="#00E5FF" stroke-width="2" stroke-linejoin="round"/>
  <!-- Shield inner -->
  <path d="M11.5 6 L20.5 6 Q25 6.5 24.8 8 L24 19 Q22 26 16 28.5 Q10 26 8 19 L7.2 8 Q7 6.5 11.5 6 Z"
        fill="none" stroke="rgba(0,229,255,0.16)" stroke-width="0.6"/>

  <!-- Sword pommel -->
  <path d="M16 0 L18 2.5 L16 5 L14 2.5 Z" fill="#00E5FF"/>
  <!-- Grip -->
  <rect x="15.3" y="5" width="1.4" height="2.5" rx="0.3" fill="#00E5FF"/>
  <!-- Crossguard -->
  <rect x="12.5" y="7.5" width="7" height="1.8" rx="0.5" fill="#00E5FF"/>
  <!-- Blade -->
  <path d="M15.3 9.3 L15.3 29 L16 30.5 L16.7 29 L16.7 9.3 Z" fill="#00E5FF"/>

  <!-- Left A -->
  <polygon points="10.8,10.5 7.5,24.5 9.8,24.5" fill="#00E5FF"/>
  <polygon points="10.8,10.5 12,24.5 14.3,24.5" fill="#00E5FF"/>
  <rect x="8.2" y="19.5" width="5.4" height="2" rx="0.3" fill="#00E5FF"/>

  <!-- Right A -->
  <polygon points="21.2,10.5 17.7,24.5 20.2,24.5" fill="#00E5FF"/>
  <polygon points="21.2,10.5 22.2,24.5 24.5,24.5" fill="#00E5FF"/>
  <rect x="18.4" y="19.5" width="5.4" height="2" rx="0.3" fill="#00E5FF"/>
</svg>
