<svg xmlns="http://www.w3.org/2000/svg" viewBox="0 0 512 512" fill="none">
  <defs>
    <linearGradient id="shieldGrad" x1="0%" y1="0%" x2="100%" y2="100%">
      <stop offset="0%" style="stop-color:#6366f1"/>
      <stop offset="100%" style="stop-color:#8b5cf6"/>
    </linearGradient>
    <linearGradient id="innerGrad" x1="0%" y1="0%" x2="100%" y2="100%">
      <stop offset="0%" style="stop-color:#818cf8"/>
      <stop offset="100%" style="stop-color:#a78bfa"/>
    </linearGradient>
  </defs>
  <!-- Shield shape -->
  <path d="M256 28L60 120v152c0 108.7 83.6 210.2 196 232 112.4-21.8 196-123.3 196-232V120L256 28z" fill="url(#shieldGrad)"/>
  <!-- Inner shield highlight -->
  <path d="M256 60L88 140v132c0 93.5 71.7 180.8 168 200 96.3-19.2 168-106.5 168-200V140L256 60z" fill="url(#innerGrad)" opacity="0.3"/>
  <!-- AI circuit pattern - left -->
  <circle cx="180" cy="220" r="12" fill="white" opacity="0.9"/>
  <circle cx="180" cy="300" r="12" fill="white" opacity="0.9"/>
  <line x1="180" y1="232" x2="180" y2="288" stroke="white" stroke-width="4" opacity="0.7"/>
  <line x1="180" y1="220" x2="220" y2="256" stroke="white" stroke-width="4" opacity="0.7"/>
  <!-- AI circuit pattern - right -->
  <circle cx="332" cy="220" r="12" fill="white" opacity="0.9"/>
  <circle cx="332" cy="300" r="12" fill="white" opacity="0.9"/>
  <line x1="332" y1="232" x2="332" y2="288" stroke="white" stroke-width="4" opacity="0.7"/>
  <line x1="332" y1="220" x2="292" y2="256" stroke="white" stroke-width="4" opacity="0.7"/>
  <!-- Central AI brain/node -->
  <circle cx="256" cy="256" r="28" fill="white" opacity="0.95"/>
  <circle cx="256" cy="256" r="18" fill="url(#shieldGrad)"/>
  <!-- AI text connections -->
  <line x1="238" y1="256" x2="192" y2="220" stroke="white" stroke-width="4" opacity="0.7"/>
  <line x1="274" y1="256" x2="320" y2="220" stroke="white" stroke-width="4" opacity="0.7"/>
  <line x1="238" y1="256" x2="192" y2="300" stroke="white" stroke-width="4" opacity="0.7"/>
  <line x1="274" y1="256" x2="320" y2="300" stroke="white" stroke-width="4" opacity="0.7"/>
  <!-- Top node -->
  <circle cx="256" cy="170" r="10" fill="white" opacity="0.9"/>
  <line x1="256" y1="180" x2="256" y2="228" stroke="white" stroke-width="4" opacity="0.7"/>
  <!-- Bottom node -->
  <circle cx="256" cy="350" r="10" fill="white" opacity="0.9"/>
  <line x1="256" y1="284" x2="256" y2="340" stroke="white" stroke-width="4" opacity="0.7"/>
</svg>
