<svg xmlns="http://www.w3.org/2000/svg" viewBox="0 0 40 44" fill="none">
  <defs>
    <linearGradient id="n1" x1="20" y1="0" x2="20" y2="44" gradientUnits="userSpaceOnUse">
      <stop offset="0%" stop-color="#22d3ee"/>
      <stop offset="100%" stop-color="#0e7490"/>
    </linearGradient>
  </defs>

  <!-- Shield shape — bold, simple -->
  <path d="M20 3 C14 3 8 4 4 6 C3.5 6.2 3 7 3.1 7.6 L4.5 26 C5.2 32 9 36 20 41 C31 36 34.8 32 35.5 26 L36.9 7.6 C37 7 36.5 6.2 36 6 C32 4 26 3 20 3Z"
        fill="#0f172a" stroke="url(#n1)" stroke-width="2"/>

  <!-- Helmet — bold silhouette -->
  <path d="M20 9 C15 9 11.5 11 10.5 14 C10 15.5 10 17 10.5 18.5 L13.5 18.5 C13 17 13.2 15.5 14 14.5 C15 13 17.2 12 20 12 C22.8 12 25 13 26 14.5 C26.8 15.5 27 17 26.5 18.5 L29.5 18.5 C30 17 30 15.5 29.5 14 C28.5 11 25 9 20 9Z"
        fill="url(#n1)"/>

  <!-- Eye slits -->
  <rect x="13" y="17.5" width="5" height="3" rx="0.5" fill="#0f172a"/>
  <rect x="22" y="17.5" width="5" height="3" rx="0.5" fill="#0f172a"/>

  <!-- Sword line — subtle center -->
  <line x1="20" y1="1" x2="20" y2="39" stroke="url(#n1)" stroke-width="1.5" opacity="0.4"/>
  <rect x="16" y="5" width="8" height="1.5" rx="0.75" fill="url(#n1)" opacity="0.6"/>
</svg>
