<svg xmlns="http://www.w3.org/2000/svg" viewBox="0 0 400 58" fill="none">
  <!-- ai-armor navbar logo (light bg) v9 -->
  <g transform="translate(2, 3)">
    <!-- Shield -->
    <path d="M13 4.5 L31 4.5 Q38 5 37.5 8 L36.5 26 Q33 39.5 22 43.5 Q11 39.5 7.5 26 L6.5 8 Q6 5 13 4.5 Z"
          fill="white" stroke="#00B8D4" stroke-width="1.5" stroke-linejoin="round"/>
    <path d="M14.5 6.5 L29.5 6.5 Q36 7 35.5 9.5 L34.5 25 Q31.5 37.5 22 41 Q12.5 37.5 9.5 25 L8.5 9.5 Q8 7 14.5 6.5 Z"
          fill="none" stroke="rgba(0,184,212,0.14)" stroke-width="0.5"/>

    <!-- Sword -->
    <path d="M22 0 L24.5 2.5 L22 5 L19.5 2.5 Z" fill="#00B8D4"/>
    <rect x="21.2" y="5" width="1.6" height="3" rx="0.3" fill="#00B8D4"/>
    <rect x="17" y="8" width="10" height="2" rx="0.5" fill="#00B8D4"/>
    <path d="M21.2 10 L21.2 42.5 L22 44 L22.8 42.5 L22.8 10 Z" fill="#00B8D4"/>

    <!-- Left A -->
    <polygon points="14.5,12.5 9.5,36 12,36" fill="#00B8D4"/>
    <polygon points="14.5,12.5 17,36 19.5,36" fill="#00B8D4"/>
    <rect x="10.5" y="27.5" width="8" height="2.2" rx="0.3" fill="#00B8D4"/>

    <!-- Right A -->
    <polygon points="29.5,12.5 24.5,36 27,36" fill="#00B8D4"/>
    <polygon points="29.5,12.5 32,36 34.5,36" fill="#00B8D4"/>
    <rect x="25.5" y="27.5" width="8" height="2.2" rx="0.3" fill="#00B8D4"/>
  </g>

  <!-- Text -->
  <text x="56" y="36" font-family="'Inter', 'SF Pro Display', -apple-system, system-ui, sans-serif"
        font-size="30" font-weight="800" letter-spacing="1" fill="#0F172A">AI-ARMOR</text>
  <text x="57" y="50" font-family="'Inter', 'SF Pro Display', -apple-system, system-ui, sans-serif"
        font-size="8.5" font-weight="500" letter-spacing="2.5" fill="#0097A7" opacity="0.5">PRODUCTION AI TOOLKIT</text>
</svg>
