<svg xmlns="http://www.w3.org/2000/svg" viewBox="0 0 200 200" fill="none">
  <!-- Shield with circuit board traces -->
  <path d="M100 12 C72 12 44 20 24 30 C20 32 18 36 18 40 L26 140 C32 172 60 192 100 210 C140 192 168 172 174 140 L182 40 C182 36 180 32 176 30 C156 20 128 12 100 12Z" fill="#09090b" stroke="#22d3ee" stroke-width="3"/>
  <!-- Circuit traces -->
  <line x1="100" y1="40" x2="100" y2="180" stroke="#22d3ee" stroke-width="1" opacity="0.3"/>
  <line x1="40" y1="80" x2="160" y2="80" stroke="#22d3ee" stroke-width="1" opacity="0.3"/>
  <line x1="50" y1="120" x2="150" y2="120" stroke="#22d3ee" stroke-width="1" opacity="0.3"/>
  <!-- Circuit nodes -->
  <circle cx="100" cy="80" r="4" fill="#22d3ee"/>
  <circle cx="70" cy="80" r="3" fill="#0e7490"/>
  <circle cx="130" cy="80" r="3" fill="#0e7490"/>
  <circle cx="100" cy="120" r="4" fill="#22d3ee"/>
  <circle cx="80" cy="120" r="3" fill="#0e7490"/>
  <circle cx="120" cy="120" r="3" fill="#0e7490"/>
  <!-- Center AI eye -->
  <circle cx="100" cy="100" r="16" fill="none" stroke="#22d3ee" stroke-width="2"/>
  <circle cx="100" cy="100" r="6" fill="#22d3ee"/>
</svg>
