<svg xmlns="http://www.w3.org/2000/svg" viewBox="0 0 200 200" fill="none">
  <defs>
    <linearGradient id="tg" x1="100" y1="10" x2="100" y2="210" gradientUnits="userSpaceOnUse">
      <stop offset="0%" stop-color="#22d3ee"/>
      <stop offset="100%" stop-color="#0e7490"/>
    </linearGradient>
  </defs>
  <!-- Digital/tech shield with scan lines -->
  <path d="M100 12 C72 12 44 20 24 30 C20 32 18 36 18 40 L26 140 C32 172 60 192 100 210 C140 192 168 172 174 140 L182 40 C182 36 180 32 176 30 C156 20 128 12 100 12Z" fill="#09090b" stroke="url(#tg)" stroke-width="2"/>
  <!-- Scan lines -->
  <line x1="32" y1="50" x2="168" y2="50" stroke="#22d3ee" stroke-width="0.5" opacity="0.2"/>
  <line x1="30" y1="70" x2="170" y2="70" stroke="#22d3ee" stroke-width="0.5" opacity="0.2"/>
  <line x1="32" y1="90" x2="168" y2="90" stroke="#22d3ee" stroke-width="0.5" opacity="0.2"/>
  <line x1="34" y1="110" x2="166" y2="110" stroke="#22d3ee" stroke-width="0.5" opacity="0.2"/>
  <line x1="38" y1="130" x2="162" y2="130" stroke="#22d3ee" stroke-width="0.5" opacity="0.2"/>
  <line x1="46" y1="150" x2="154" y2="150" stroke="#22d3ee" stroke-width="0.5" opacity="0.2"/>
  <!-- Binary feel -->
  <text x="52" y="66" font-family="monospace" font-size="8" fill="#22d3ee" opacity="0.3">01001</text>
  <text x="120" y="86" font-family="monospace" font-size="8" fill="#22d3ee" opacity="0.3">11010</text>
  <text x="60" y="146" font-family="monospace" font-size="8" fill="#22d3ee" opacity="0.3">10110</text>
  <!-- Center shield icon -->
  <path d="M100 70 C90 70 80 74 74 78 L78 128 C80 140 88 148 100 156 C112 148 120 140 122 128 L126 78 C120 74 110 70 100 70Z" fill="none" stroke="url(#tg)" stroke-width="2"/>
  <!-- Checkmark inside -->
  <path d="M88 110 L96 118 L114 96" fill="none" stroke="#22d3ee" stroke-width="3" stroke-linecap="round" stroke-linejoin="round"/>
</svg>
