<svg xmlns="http://www.w3.org/2000/svg" viewBox="0 0 200 200" fill="none">
  <defs>
    <linearGradient id="g1" x1="100" y1="10" x2="100" y2="210" gradientUnits="userSpaceOnUse">
      <stop offset="0%" stop-color="#22d3ee"/>
      <stop offset="100%" stop-color="#0e7490"/>
    </linearGradient>
  </defs>
  <!-- Shield with gradient stroke -->
  <path d="M100 12 C72 12 44 20 24 30 C20 32 18 36 18 40 L26 140 C32 172 60 192 100 210 C140 192 168 172 174 140 L182 40 C182 36 180 32 176 30 C156 20 128 12 100 12Z" fill="#09090b" stroke="url(#g1)" stroke-width="4"/>
  <!-- Glowing A lettermark -->
  <path d="M100 50 L65 160 L78 160 L88 128 L112 128 L122 160 L135 160 L100 50Z M92 118 L100 80 L108 118Z" fill="url(#g1)" fill-rule="evenodd"/>
</svg>
