<svg xmlns="http://www.w3.org/2000/svg" viewBox="0 0 200 200" fill="none">
  <!-- Knight helmet front view -->
  <!-- Helm dome -->
  <path d="M100 20 C60 20 36 50 36 85 L36 120 C36 145 50 160 70 165 L80 168 L80 180 L120 180 L120 168 L130 165 C150 160 164 145 164 120 L164 85 C164 50 140 20 100 20Z" fill="#0f172a" stroke="#22d3ee" stroke-width="2.5"/>
  <!-- Visor slit -->
  <path d="M50 95 L150 95 L145 110 L55 110Z" fill="#09090b" stroke="#0e7490" stroke-width="1.5"/>
  <!-- Eye glows -->
  <ellipse cx="78" cy="102" rx="12" ry="5" fill="#22d3ee" opacity="0.8"/>
  <ellipse cx="122" cy="102" rx="12" ry="5" fill="#22d3ee" opacity="0.8"/>
  <!-- Nose guard -->
  <line x1="100" y1="90" x2="100" y2="115" stroke="#22d3ee" stroke-width="2"/>
  <!-- Helm crest -->
  <path d="M100 20 L100 8 L108 14 L100 20" fill="#22d3ee"/>
  <!-- Chin guard -->
  <path d="M80 140 Q100 155 120 140" fill="none" stroke="#0e7490" stroke-width="1.5"/>
  <!-- Cheek rivets -->
  <circle cx="55" cy="120" r="3" fill="#0e7490"/>
  <circle cx="145" cy="120" r="3" fill="#0e7490"/>
</svg>
