<svg xmlns="http://www.w3.org/2000/svg" viewBox="0 0 200 200" fill="none">
  <defs>
    <linearGradient id="hg" x1="100" y1="10" x2="100" y2="190" gradientUnits="userSpaceOnUse">
      <stop offset="0%" stop-color="#22d3ee"/>
      <stop offset="100%" stop-color="#0e7490"/>
    </linearGradient>
  </defs>
  <!-- Modern minimalist helmet -->
  <!-- Helm dome -->
  <path d="M100 18 C60 18 35 48 32 82 L30 115 C28 150 52 175 85 182 L100 185 L115 182 C148 175 172 150 170 115 L168 82 C165 48 140 18 100 18Z" fill="#09090b" stroke="url(#hg)" stroke-width="2.5"/>
  <!-- Visor -->
  <path d="M42 88 L158 88 L154 108 L46 108Z" fill="#0f172a"/>
  <!-- T-shape visor opening -->
  <line x1="100" y1="75" x2="100" y2="112" stroke="url(#hg)" stroke-width="3"/>
  <line x1="48" y1="95" x2="152" y2="95" stroke="url(#hg)" stroke-width="3"/>
  <!-- Eye glow left -->
  <ellipse cx="74" cy="96" rx="16" ry="6" fill="#22d3ee" opacity="0.7"/>
  <!-- Eye glow right -->
  <ellipse cx="126" cy="96" rx="16" ry="6" fill="#22d3ee" opacity="0.7"/>
  <!-- Chin detail -->
  <path d="M70 140 Q100 158 130 140" fill="none" stroke="#0e7490" stroke-width="1.5"/>
  <path d="M78 150 Q100 162 122 150" fill="none" stroke="#0e7490" stroke-width="1" opacity="0.5"/>
</svg>
