<svg xmlns="http://www.w3.org/2000/svg" viewBox="0 0 200 200" fill="none">
  <!-- Fortress/castle wall -->
  <!-- Base wall -->
  <rect x="30" y="80" width="140" height="100" rx="4" fill="#09090b" stroke="#22d3ee" stroke-width="2"/>
  <!-- Battlements -->
  <rect x="30" y="60" width="24" height="28" fill="#09090b" stroke="#22d3ee" stroke-width="2"/>
  <rect x="66" y="60" width="24" height="28" fill="#09090b" stroke="#22d3ee" stroke-width="2"/>
  <rect x="110" y="60" width="24" height="28" fill="#09090b" stroke="#22d3ee" stroke-width="2"/>
  <rect x="146" y="60" width="24" height="28" fill="#09090b" stroke="#22d3ee" stroke-width="2"/>
  <!-- Gate -->
  <path d="M82 180 L82 130 C82 115 100 105 100 105 C100 105 118 115 118 130 L118 180" fill="#0f172a" stroke="#22d3ee" stroke-width="2"/>
  <!-- Gate glow -->
  <circle cx="100" cy="145" r="5" fill="#22d3ee" opacity="0.6"/>
  <!-- Towers -->
  <rect x="16" y="50" width="20" height="130" rx="2" fill="#0f172a" stroke="#0e7490" stroke-width="1.5"/>
  <rect x="164" y="50" width="20" height="130" rx="2" fill="#0f172a" stroke="#0e7490" stroke-width="1.5"/>
  <!-- Tower tops -->
  <path d="M16 50 L26 30 L36 50" fill="#0f172a" stroke="#0e7490" stroke-width="1.5"/>
  <path d="M164 50 L174 30 L184 50" fill="#0f172a" stroke="#0e7490" stroke-width="1.5"/>
</svg>
