<svg xmlns="http://www.w3.org/2000/svg" viewBox="0 0 200 200" fill="none">
  <!-- Minimalist Spartan helmet — single continuous stroke, bold -->
  <!-- Just the essential silhouette that everyone recognizes -->
  <path d="M100 12
           C62 12 38 40 34 72
           L32 96
           C30 112 36 128 48 136
           L48 170
           C48 178 56 184 66 184
           L76 184
           L76 160
           L82 152"
        fill="none" stroke="#22d3ee" stroke-width="4" stroke-linecap="round"/>
  <path d="M100 12
           C138 12 162 40 166 72
           L168 96
           C170 112 164 128 152 136
           L152 170
           C152 178 144 184 134 184
           L124 184
           L124 160
           L118 152"
        fill="none" stroke="#22d3ee" stroke-width="4" stroke-linecap="round"/>
  <!-- Crest — single bold stroke -->
  <path d="M90 12 L90 4 C90 0 96 -2 100 -2 C104 -2 110 0 110 4 L110 12"
        fill="#22d3ee"/>
  <rect x="92" y="-2" width="16" height="18" rx="6" fill="#22d3ee"/>
  <!-- T-visor — the recognition point -->
  <line x1="40" y1="92" x2="160" y2="92" stroke="#22d3ee" stroke-width="5" stroke-linecap="round"/>
  <line x1="100" y1="76" x2="100" y2="104" stroke="#22d3ee" stroke-width="5" stroke-linecap="round"/>
</svg>
